<?xml version="1.0" standalone="no"?>
<!DOCTYPE svg PUBLIC "-//W3C//DTD SVG 20010904//EN"
 "http://www.w3.org/TR/2001/REC-SVG-20010904/DTD/svg10.dtd">
<svg version="1.0" xmlns="http://www.w3.org/2000/svg"
 width="152.000000pt" height="152.000000pt" viewBox="0 0 152.000000 152.000000"
 preserveAspectRatio="xMidYMid meet">
<metadata>
Created by potrace 1.11, written by Peter Selinger 2001-2013
</metadata>
<g transform="translate(0.000000,152.000000) scale(0.100000,-0.100000)"
fill="#000000" stroke="none">
<path d="M912 1513 c-7 -2 -17 -13 -22 -23 -9 -17 -8 -18 19 -4 37 18 75 10
100 -22 23 -29 31 -31 24 -4 -11 43 -76 71 -121 53z"/>
<path d="M606 1485 c-14 -13 -26 -32 -26 -42 1 -16 3 -15 20 5 29 35 75 48
105 28 31 -20 33 -3 3 18 -32 23 -71 20 -102 -9z"/>
<path d="M696 1424 c-146 -35 -257 -129 -310 -264 -23 -58 -30 -87 -30 -132
-1 -21 -4 -38 -7 -38 -4 0 -4 -15 0 -32 4 -18 6 -50 5 -70 -1 -24 2 -35 9 -31
6 3 7 1 3 -5 -14 -22 -16 -53 -3 -45 7 4 6 0 -2 -10 -7 -9 -9 -17 -3 -17 5 0
8 -15 7 -32 -2 -18 2 -39 8 -47 9 -12 9 -13 0 -7 -10 5 -11 1 -3 -18 6 -16 6
-26 0 -26 -5 0 -7 -18 -4 -41 4 -26 2 -39 -4 -36 -5 4 -8 -4 -6 -18 1 -14 -3
-25 -9 -25 -7 0 -5 -5 3 -10 12 -8 12 -10 -5 -11 -11 0 -15 -3 -8 -5 7 -3 9
-12 6 -20 -5 -13 -7 -13 -15 -2 -8 10 -9 10 -5 -2 2 -8 -3 -20 -11 -26 -11 -8
-12 -16 -5 -28 10 -17 10 -17 18 0 5 11 9 21 10 24 0 3 13 28 26 56 14 28 24
59 23 68 -1 11 3 16 10 13 7 -3 13 1 13 9 0 7 -3 11 -7 9 -3 -2 -12 5 -19 17
-8 12 -8 17 -1 13 6 -4 18 -1 26 6 13 11 15 10 12 -6 -2 -13 3 -20 17 -22 15
-2 16 -1 5 5 -8 4 -16 16 -17 27 -2 17 4 20 43 21 27 0 43 -4 41 -10 -2 -6
-11 -10 -21 -8 -9 2 -16 -2 -16 -8 0 -6 5 -8 12 -4 8 5 9 1 5 -12 -5 -15 -3
-14 9 4 9 12 21 22 26 22 6 0 4 -8 -3 -17 -9 -10 -9 -14 -2 -10 7 5 19 -3 29
-18 l17 -26 24 28 c16 18 23 22 19 10 -3 -10 -2 -16 3 -13 12 8 22 -20 14 -42
-4 -11 1 -8 14 8 18 21 23 22 37 11 9 -7 13 -17 10 -22 -3 -5 2 -6 10 -3 11 4
7 13 -19 36 -19 16 -39 27 -45 23 -5 -3 -10 -2 -10 4 0 22 20 19 55 -9 21 -16
42 -27 47 -24 5 3 8 -2 6 -12 -4 -26 36 -27 67 -2 14 11 25 15 25 9 0 -5 -10
-17 -22 -25 -12 -9 -23 -26 -24 -38 -2 -13 0 -17 2 -11 3 7 5 15 4 18 -1 8 45
45 55 45 4 0 18 -11 31 -26 13 -14 24 -21 24 -15 0 5 -4 13 -10 16 -13 8 -13
25 -1 25 5 0 13 -9 16 -20 4 -11 11 -17 17 -14 7 5 9 1 5 -9 -3 -10 -2 -17 3
-17 16 0 11 30 -5 36 -8 4 -12 10 -9 15 9 15 20 10 32 -16 8 -18 16 -23 29
-18 16 6 16 5 5 -10 -8 -9 -19 -15 -24 -14 -6 1 -13 -5 -15 -13 -4 -12 -3 -12
5 -2 5 8 11 13 13 12 15 -6 39 15 34 30 -4 14 0 17 24 16 16 -1 33 -5 37 -9 7
-7 -6 -10 -36 -8 -9 0 -10 -2 -3 -5 7 -3 10 -13 7 -22 -5 -14 -2 -13 10 3 16
19 16 19 34 -5 9 -14 16 -29 14 -33 -1 -5 2 -6 8 -2 7 4 3 17 -10 36 -12 16
-17 29 -11 29 5 0 17 -10 26 -22 l17 -23 -8 25 c-6 22 -5 23 9 12 9 -8 13 -21
10 -30 -4 -14 -3 -15 5 -2 6 8 8 18 5 24 -4 5 -1 6 6 2 7 -5 10 -14 7 -22 -3
-8 0 -14 6 -14 6 0 8 -3 5 -7 -4 -3 -2 -12 4 -20 6 -7 8 -13 4 -13 -4 0 4 -9
19 -21 14 -11 24 -24 21 -29 -7 -11 22 -21 42 -13 14 5 13 8 -6 15 -12 4 -20
12 -17 17 4 5 -5 18 -19 29 -13 11 -21 23 -17 26 4 4 -2 14 -12 22 -13 9 -15
14 -6 14 10 0 9 4 -4 13 -16 12 -16 14 -2 26 13 11 14 16 4 29 -7 9 -8 13 -2
9 6 -4 16 5 23 21 7 15 11 28 9 28 -1 1 5 11 15 21 9 11 14 23 10 26 -3 4 -1
7 6 7 7 0 10 4 6 9 -3 5 0 13 6 16 5 4 8 14 5 22 -3 8 -1 11 4 8 6 -3 10 0 11
7 0 7 2 20 5 28 28 106 31 267 7 359 -49 191 -194 298 -417 306 -55 2 -114 -2
-150 -11z m-291 -552 c-3 -3 -11 0 -18 7 -9 10 -8 11 6 5 10 -3 15 -9 12 -12z
m196 -5 c-10 -9 -11 -8 -5 6 3 10 9 15 12 12 3 -3 0 -11 -7 -18z m-111 -11
c-7 -7 -13 -7 -20 0 -6 6 -3 10 10 10 13 0 16 -4 10 -10z m260 4 c0 -5 -2 -10
-4 -10 -3 0 -8 5 -11 10 -3 6 -1 10 4 10 6 0 11 -4 11 -10z m-323 -20 c2 -25
-9 -32 -27 -18 -12 8 -11 9 4 4 13 -5 17 -2 13 8 -3 8 -3 17 0 20 9 8 9 8 10
-14z m103 10 c0 -5 -2 -10 -4 -10 -3 0 -8 5 -11 10 -3 6 -1 10 4 10 6 0 11 -4
11 -10z m120 7 c0 -2 -8 -11 -18 -20 -15 -14 -19 -15 -19 -2 0 8 4 12 8 9 4
-2 10 0 14 6 6 10 15 14 15 7z m-168 -24 c-13 -3 -19 -9 -16 -15 4 -7 2 -8 -5
-4 -17 11 -3 26 22 25 22 -2 22 -2 -1 -6z m44 -19 c-5 -12 -1 -14 17 -9 20 5
20 5 4 -5 -10 -7 -21 -9 -25 -6 -10 11 -11 36 0 36 6 0 7 -7 4 -16z m-97 -31
c4 -3 -28 2 -47 6 -2 1 0 6 3 11 5 8 12 7 23 -2 10 -7 19 -14 21 -15z m21 16
c0 -6 8 -8 19 -4 11 3 25 -1 34 -9 8 -8 18 -12 22 -8 5 4 5 1 1 -5 -4 -7 -3
-13 2 -13 6 0 12 7 16 15 6 17 26 20 26 4 0 -5 -4 -7 -10 -4 -14 9 -12 -7 4
-27 7 -10 16 -16 19 -13 4 3 5 2 2 -2 -3 -3 0 -12 6 -19 8 -9 5 -15 -9 -23
-11 -6 -23 -7 -27 -3 -5 4 -5 1 0 -7 5 -9 4 -12 -3 -7 -6 3 -14 1 -18 -5 -4
-7 -3 -9 3 -6 6 4 19 0 29 -8 18 -14 18 -14 -5 -10 -13 2 -32 12 -42 21 -11
10 -19 14 -19 9 0 -4 -7 -2 -15 5 -12 10 -15 10 -15 -1 0 -7 -8 -2 -17 11 -10
14 -17 29 -15 33 1 5 -2 6 -8 2 -6 -3 -7 0 -4 9 3 9 11 13 17 9 6 -3 7 -1 3 6
-4 6 -12 9 -17 6 -5 -4 -9 -1 -9 4 0 6 7 11 15 11 18 0 19 12 3 28 -9 9 -9 12
0 12 7 0 12 -5 12 -11z m260 -1 c0 -4 -9 -7 -20 -5 -29 5 -33 13 -5 13 14 0
25 -4 25 -8z m45 2 c3 -6 -1 -7 -9 -4 -18 7 -21 14 -7 14 6 0 13 -4 16 -10z
m51 -15 c-1 -8 -5 -17 -8 -21 -5 -4 -4 16 1 34 3 9 9 -1 7 -13z m79 6 c3 -5 2
-12 -3 -15 -5 -3 -9 1 -9 9 0 17 3 19 12 6z m-220 -11 c3 -5 1 -10 -4 -10 -6
0 -11 5 -11 10 0 6 2 10 4 10 3 0 8 -4 11 -10z m90 -8 c-3 -3 -11 0 -18 7 -9
10 -8 11 6 5 10 -3 15 -9 12 -12z m390 9 c3 -5 2 -12 -3 -15 -5 -3 -9 1 -9 9
0 17 3 19 12 6z m-117 -26 c-3 -3 -9 2 -12 12 -6 14 -5 15 5 6 7 -7 10 -15 7
-18z m-623 6 c-3 -5 -1 -12 5 -16 6 -4 8 -10 5 -14 -2 -5 4 -16 15 -26 23 -21
26 -37 6 -33 -8 2 -21 -6 -29 -16 -14 -19 -14 -19 -13 5 1 13 -1 36 -5 51 -6
22 -4 26 9 21 14 -5 15 -3 5 8 -16 16 -17 29 -2 29 5 0 8 -4 4 -9z m678 -9
c15 -16 15 -19 2 -19 -8 0 -13 3 -10 5 3 3 0 11 -6 19 -17 20 -5 16 14 -5z
m-78 -2 c-3 -5 -1 -10 6 -10 7 0 10 -3 6 -6 -9 -9 -28 6 -22 17 4 5 8 9 11 9
3 0 2 -4 -1 -10z m-22 -23 c4 3 7 1 7 -5 0 -17 -16 -15 -31 6 -12 15 -12 16 2
5 9 -7 19 -10 22 -6z m69 6 c-6 -2 -10 -9 -6 -14 3 -5 -1 -12 -10 -15 -8 -3
-12 -12 -9 -20 3 -8 8 -12 12 -9 4 2 19 -7 34 -21 15 -14 27 -20 27 -14 0 5 7
10 15 10 8 0 15 5 15 10 0 6 5 10 11 10 8 0 8 -5 -1 -15 -10 -12 -10 -18 0
-30 7 -8 17 -12 23 -8 6 3 7 1 3 -6 -6 -9 -11 -9 -22 0 -11 9 -13 6 -10 -20 2
-17 -1 -28 -5 -25 -5 3 -8 -4 -6 -15 2 -21 -15 -30 -22 -10 -2 6 1 9 6 6 5 -3
9 3 9 14 0 19 -1 19 -13 3 -7 -10 -13 -13 -13 -8 0 6 4 14 10 20 6 6 6 15 0
24 -8 12 -10 12 -10 1 0 -11 -3 -11 -17 0 -14 12 -16 12 -9 -1 4 -8 1 -7 -7 3
-10 12 -17 15 -22 7 -4 -6 -1 -18 7 -27 11 -14 11 -16 -4 -10 -13 4 -16 2 -12
-11 5 -15 4 -15 -6 0 -8 13 -8 23 0 37 7 13 7 22 0 26 -11 7 -12 4 -14 -38 -1
-15 -4 -26 -8 -25 -3 2 -15 -5 -25 -15 -19 -16 -20 -16 -31 7 -9 21 -17 24
-49 21 -45 -3 -77 11 -69 30 3 8 0 17 -6 21 -7 5 -8 2 -3 -6 5 -9 4 -11 -3 -6
-7 4 -10 2 -6 -7 6 -18 -16 -37 -52 -43 -27 -5 -27 -4 -11 14 9 10 14 21 11
24 -3 3 -1 9 5 13 6 3 11 -1 11 -9 0 -9 5 -16 11 -16 5 0 7 5 3 12 -4 7 -3 8
4 4 7 -4 10 -2 6 7 -5 14 -11 16 -59 19 -14 1 -25 6 -25 10 0 8 11 11 43 11 9
0 17 3 17 7 0 7 18 11 68 12 26 0 30 3 21 14 -8 10 -8 14 0 14 6 0 11 -5 11
-11 0 -8 5 -8 15 1 8 7 12 16 9 21 -3 5 -3 9 0 9 3 0 10 -9 16 -20 9 -17 8
-19 -7 -13 -16 6 -16 5 -5 -10 8 -9 11 -21 8 -26 -4 -5 -2 -12 4 -16 9 -6 14
7 11 28 0 4 3 7 9 7 6 0 9 5 8 12 -2 6 5 14 15 16 9 2 17 -1 17 -7 0 -6 -6 -8
-13 -5 -8 3 -13 -4 -14 -17 -2 -16 1 -19 9 -11 9 9 15 8 27 -1 12 -10 14 -9 9
4 -7 18 6 43 22 45 5 1 15 2 20 3 6 0 9 4 9 9 -3 15 1 22 14 21 9 0 9 -2 -1
-6z m137 -6 c8 -10 7 -14 -2 -14 -8 0 -14 6 -14 14 0 7 1 13 2 13 2 0 8 -6 14
-13z m-243 -9 c4 -7 3 -8 -4 -4 -7 4 -12 2 -12 -5 0 -7 -3 -10 -6 -6 -6 5 3
27 11 27 2 0 7 -5 11 -12z m133 -36 c-1 -15 -2 -15 -6 1 -2 9 -9 14 -15 11 -7
-4 -8 -2 -4 5 10 15 26 4 25 -17z m-466 1 c-5 -12 -2 -15 8 -11 8 3 23 0 33
-8 11 -7 23 -11 27 -8 11 6 31 -34 23 -47 -4 -7 -13 -4 -25 7 -10 9 -16 21
-13 25 4 7 -26 6 -46 -1 -3 -2 -8 -2 -12 -1 -4 0 -16 -11 -27 -26 -12 -14 -21
-21 -21 -15 0 6 -7 18 -16 27 -15 14 -14 15 15 10 30 -5 42 7 21 20 -16 10
-12 21 13 33 12 6 23 11 24 11 1 1 -1 -7 -4 -16z m563 -7 c0 -14 -5 -21 -9
-17 -4 4 -5 15 -1 24 9 24 12 21 10 -7z m-72 -1 c3 -8 1 -15 -4 -15 -6 0 -10
7 -10 15 0 8 2 15 4 15 2 0 6 -7 10 -15z m33 9 c-3 -3 -12 -4 -19 -1 -8 3 -5
6 6 6 11 1 17 -2 13 -5z m-396 -63 c6 10 8 7 6 -8 -1 -14 -7 -21 -19 -20 -21
1 -20 0 -11 23 5 13 8 14 11 5 4 -11 6 -11 13 0z m-91 -21 c0 -5 -4 -10 -10
-10 -5 0 -10 5 -10 10 0 6 5 10 10 10 6 0 10 -4 10 -10z m433 -15 c14 3 16 0
7 -10 -6 -7 -8 -20 -4 -29 7 -20 -6 -21 -31 -3 -13 10 -15 16 -6 21 9 6 9 12
-1 24 -11 15 -11 15 2 6 8 -6 23 -10 33 -9z m-753 -139 c0 -3 -4 -8 -10 -11
-5 -3 -10 -1 -10 4 0 6 5 11 10 11 6 0 10 -2 10 -4z m870 -21 c7 -9 8 -15 2
-15 -5 0 -12 7 -16 15 -3 8 -4 15 -2 15 2 0 9 -7 16 -15z"/>
<path d="M460 775 c-7 -9 -10 -18 -7 -22 4 -3 2 -14 -3 -23 -7 -13 -5 -21 5
-30 8 -7 15 -9 15 -5 0 4 7 2 15 -5 8 -7 15 -9 15 -5 0 4 6 2 14 -4 10 -9 16
-8 26 4 7 8 16 12 21 9 5 -3 9 0 9 6 0 6 5 8 11 4 7 -4 2 7 -11 24 -12 17 -28
28 -34 26 -7 -3 -21 4 -31 16 -22 24 -29 25 -45 5z m30 -16 c0 -5 4 -7 10 -4
5 3 7 0 4 -9 -4 -11 1 -14 20 -12 15 2 31 -4 38 -13 12 -14 11 -15 -6 -1 -18
14 -19 13 -13 -2 6 -18 -15 -43 -27 -30 -4 4 -12 8 -17 8 -5 1 -11 3 -14 4 -5
2 -18 6 -31 9 -4 0 -1 8 6 16 7 8 17 12 22 8 6 -3 8 0 6 8 -3 8 -11 13 -17 11
-7 -1 -10 2 -6 8 8 13 25 13 25 -1z"/>
<path d="M463 716 c-3 -6 -3 -8 2 -4 4 4 14 3 22 -3 7 -6 13 -8 13 -4 0 4 6 2
14 -4 9 -8 16 -8 20 -2 4 5 1 13 -6 18 -20 12 -58 11 -65 -1z"/>
<path d="M404 695 c0 -17 3 -21 11 -15 7 6 16 6 21 2 5 -4 0 3 -10 16 -11 12
-20 22 -21 22 0 0 -1 -11 -1 -25z"/>
<path d="M997 687 c-4 -10 1 -18 12 -22 10 -3 18 -13 17 -22 0 -8 6 -17 14
-18 8 -2 23 -6 33 -10 9 -4 17 -3 17 2 0 11 -50 56 -50 45 0 -4 -9 4 -19 17
-15 19 -19 21 -24 8z m57 -45 c3 -5 -1 -9 -9 -9 -8 0 -12 4 -9 9 3 4 7 8 9 8
2 0 6 -4 9 -8z"/>
<path d="M876 671 c-4 -6 -19 -9 -32 -7 -26 5 -74 -11 -74 -24 0 -4 10 -6 23
-6 29 3 47 -11 40 -32 -4 -13 -3 -14 5 -3 8 10 10 11 14 0 5 -15 48 -20 64 -8
12 10 46 -25 36 -37 -4 -5 1 -2 10 5 9 7 21 10 25 8 12 -7 10 50 -1 60 -5 5
-6 2 -1 -6 5 -9 4 -12 -3 -7 -7 4 -10 0 -7 -12 2 -10 -2 -19 -9 -19 -7 0 -13
6 -13 13 0 7 3 11 7 9 4 -2 7 2 7 10 0 8 -4 15 -9 15 -4 0 -8 -5 -8 -11 0 -5
-5 -7 -11 -3 -8 5 -6 10 5 16 9 5 21 6 26 3 6 -3 10 -2 10 4 0 15 -18 23 -25
11 -4 -6 -10 -8 -15 -5 -4 3 -11 -2 -14 -11 -5 -13 -9 -14 -21 -4 -8 7 -13 15
-11 19 3 4 1 13 -3 20 -6 9 -11 10 -15 2z m-34 -31 c-4 -11 0 -10 16 4 12 11
25 16 29 13 3 -4 1 -7 -5 -7 -9 0 -9 -5 0 -19 6 -11 20 -18 29 -16 10 2 24 -4
31 -13 11 -15 11 -15 -3 -5 -9 7 -19 9 -23 5 -17 -17 -54 -7 -72 20 -14 20
-25 26 -39 22 -15 -4 -17 -3 -6 5 22 15 50 10 43 -9z"/>
<path d="M854 629 c-4 -7 -3 -9 4 -5 5 3 13 0 15 -6 4 -9 6 -10 6 -1 1 17 -16
25 -25 12z"/>
<path d="M996 651 c-4 -7 -5 -15 -2 -18 9 -9 19 4 14 18 -4 11 -6 11 -12 0z"/>
<path d="M1106 631 c-8 -12 4 -41 16 -41 6 0 6 6 -1 14 -9 11 -9 15 1 18 9 3
9 6 1 11 -7 4 -14 3 -17 -2z"/>
<path d="M586 671 c-4 -5 -2 -12 3 -15 5 -4 12 -2 15 3 4 5 2 12 -3 15 -5 4
-12 2 -15 -3z"/>
<path d="M619 653 c-12 -16 -12 -17 2 -6 9 7 20 9 24 5 5 -4 5 -1 1 6 -9 16
-11 15 -27 -5z"/>
<path d="M676 641 c-3 -5 1 -11 9 -14 9 -4 12 -1 8 9 -6 16 -10 17 -17 5z"/>
<path d="M1064 569 c-3 -6 -2 -15 3 -20 5 -5 9 -1 9 11 0 23 -2 24 -12 9z"/>
<path d="M440 640 c0 -5 5 -10 10 -10 6 0 10 5 10 10 0 6 -4 10 -10 10 -5 0
-10 -4 -10 -10z"/>
<path d="M461 603 c-1 -16 -6 -20 -23 -17 -21 4 -21 4 -3 -5 24 -11 39 0 32
25 -4 16 -5 16 -6 -3z"/>
<path d="M495 599 c-4 -6 -4 -13 -1 -16 3 -4 6 -1 6 5 0 6 8 13 18 15 15 4 15
5 0 6 -9 0 -20 -4 -23 -10z"/>
<path d="M510 580 c0 -5 7 -6 17 -3 12 5 14 3 8 -7 -5 -9 -4 -11 4 -6 6 4 9
12 6 17 -8 12 -35 12 -35 -1z"/>
<path d="M590 580 c0 -5 5 -10 10 -10 6 0 10 5 10 10 0 6 -4 10 -10 10 -5 0
-10 -4 -10 -10z"/>
<path d="M459 553 c-11 -15 -11 -16 1 -6 11 10 16 9 26 -5 12 -15 12 -15 7 6
-6 27 -16 28 -34 5z"/>
<path d="M646 562 c-3 -5 1 -9 9 -9 8 0 15 4 15 9 0 4 -4 8 -9 8 -6 0 -12 -4
-15 -8z"/>
<path d="M600 551 c0 -6 4 -13 10 -16 6 -3 7 1 4 9 -7 18 -14 21 -14 7z"/>
<path d="M554 525 c2 -35 11 -39 12 -4 1 16 -2 29 -6 29 -4 0 -6 -11 -6 -25z"/>
<path d="M695 541 c-4 -7 0 -8 11 -4 12 4 15 3 10 -5 -4 -7 -2 -12 4 -12 14 0
8 22 -7 27 -6 2 -14 -1 -18 -6z"/>
<path d="M814 538 c-5 -7 -2 -9 8 -5 10 3 19 -3 26 -18 8 -17 17 -23 32 -20
15 3 20 0 17 -9 -3 -7 1 -13 8 -13 10 0 11 5 4 18 -5 11 -17 16 -30 14 -15 -3
-19 0 -15 11 3 8 2 13 -3 10 -5 -3 -11 1 -15 9 -6 18 -22 19 -32 3z"/>
<path d="M667 527 c-3 -8 1 -14 8 -14 7 0 11 6 8 14 -3 7 -6 13 -8 13 -2 0 -5
-6 -8 -13z"/>
<path d="M390 519 c0 -5 5 -7 10 -4 6 3 10 8 10 11 0 2 -4 4 -10 4 -5 0 -10
-5 -10 -11z"/>
<path d="M436 518 c3 -5 10 -6 15 -3 13 9 11 12 -6 12 -8 0 -12 -4 -9 -9z"/>
<path d="M633 515 c0 -8 4 -12 9 -9 5 3 6 10 3 15 -9 13 -12 11 -12 -6z"/>
<path d="M795 510 c-3 -6 1 -7 9 -4 18 7 21 14 7 14 -6 0 -13 -4 -16 -10z"/>
<path d="M590 498 c0 -4 4 -8 9 -8 6 0 12 4 15 8 3 5 -1 9 -9 9 -8 0 -15 -4
-15 -9z"/>
<path d="M990 485 c0 -8 4 -15 10 -15 5 0 7 7 4 15 -4 8 -8 15 -10 15 -2 0 -4
-7 -4 -15z"/>
<path d="M820 480 c-8 -5 -10 -10 -5 -10 6 0 17 5 25 10 8 5 11 10 5 10 -5 0
-17 -5 -25 -10z"/>
<path d="M1035 480 c3 -5 11 -10 16 -10 6 0 7 5 4 10 -3 6 -11 10 -16 10 -6 0
-7 -4 -4 -10z"/>
<path d="M653 465 c0 -8 4 -12 9 -9 5 3 6 10 3 15 -9 13 -12 11 -12 -6z"/>
<path d="M715 471 c-3 -5 -2 -12 3 -15 5 -3 9 1 9 9 0 17 -3 19 -12 6z"/>
<path d="M840 455 c-7 -9 -11 -17 -9 -20 3 -2 10 5 17 15 14 24 10 26 -8 5z"/>
<path d="M1093 454 c-3 -8 -2 -19 3 -24 5 -5 9 1 9 16 0 28 -3 30 -12 8z"/>
<path d="M905 440 c10 -11 20 -20 23 -20 3 0 -3 9 -13 20 -10 11 -20 20 -23
20 -3 0 3 -9 13 -20z"/>
<path d="M934 442 c4 -3 14 -7 22 -8 9 -1 13 0 10 4 -4 3 -14 7 -22 8 -9 1
-13 0 -10 -4z"/>
<path d="M1030 417 c0 -2 6 -10 14 -16 11 -9 16 -9 22 1 4 7 4 10 -1 6 -4 -4
-14 -3 -22 3 -7 6 -13 9 -13 6z"/>
<path d="M1135 410 c-3 -6 -18 -8 -32 -6 -14 3 -23 2 -19 -1 13 -14 44 -12 56
2 7 8 10 15 7 15 -3 0 -9 -5 -12 -10z"/>
<path d="M1155 401 c-3 -5 -2 -12 3 -15 5 -3 9 1 9 9 0 17 -3 19 -12 6z"/>
<path d="M275 381 c-3 -5 -2 -12 3 -15 5 -3 9 1 9 9 0 17 -3 19 -12 6z"/>
<path d="M1015 380 c-3 -5 -1 -10 4 -10 6 0 11 5 11 10 0 6 -2 10 -4 10 -3 0
-8 -4 -11 -10z"/>
<path d="M1230 359 c0 -6 7 -9 14 -6 11 4 13 1 9 -10 -5 -12 -3 -14 7 -8 10 6
12 4 7 -8 -4 -11 -1 -17 9 -17 8 0 13 -4 9 -9 -3 -5 2 -17 11 -25 11 -12 12
-16 2 -16 -8 0 -9 -3 -3 -8 6 -4 10 -13 10 -21 0 -8 7 -16 15 -18 11 -3 12 -2
3 4 -7 5 -11 19 -8 31 2 12 0 24 -5 27 -5 3 -7 12 -3 20 3 8 1 15 -4 15 -5 0
-17 14 -26 30 -18 29 -47 41 -47 19z"/>
<path d="M921 234 c0 -11 3 -14 6 -6 3 7 2 16 -1 19 -3 4 -6 -2 -5 -13z"/>
<path d="M975 200 c-3 -5 -1 -10 4 -10 6 0 11 5 11 10 0 6 -2 10 -4 10 -3 0
-8 -4 -11 -10z"/>
<path d="M435 189 c-4 -6 -5 -12 -2 -15 2 -3 7 2 10 11 7 17 1 20 -8 4z"/>
<path d="M1310 190 c0 -5 5 -10 11 -10 5 0 7 5 4 10 -3 6 -8 10 -11 10 -2 0
-4 -4 -4 -10z"/>
<path d="M998 173 c7 -3 16 -2 19 1 4 3 -2 6 -13 5 -11 0 -14 -3 -6 -6z"/>
<path d="M656 158 c3 -5 10 -6 15 -3 13 9 11 12 -6 12 -8 0 -12 -4 -9 -9z"/>
<path d="M1247 159 c7 -7 15 -10 18 -7 3 3 -2 9 -12 12 -14 6 -15 5 -6 -5z"/>
<path d="M1310 161 c0 -6 4 -13 10 -16 6 -3 7 1 4 9 -7 18 -14 21 -14 7z"/>
<path d="M1010 141 c0 -6 4 -13 10 -16 6 -3 7 1 4 9 -7 18 -14 21 -14 7z"/>
<path d="M1139 148 c-5 -16 -4 -46 2 -42 4 2 7 13 6 24 -1 17 -5 26 -8 18z"/>
</g>
</svg>
